<svg width="20" height="21" viewBox="0 0 20 21" fill="none" xmlns="http://www.w3.org/2000/svg">
<path d="M3.33325 7.16666V14.5C3.33325 15.4334 3.33325 15.8998 3.51491 16.2563C3.6747 16.5699 3.92948 16.8254 4.24308 16.9852C4.59925 17.1667 5.06575 17.1667 5.99734 17.1667H14.0025C14.9341 17.1667 15.3999 17.1667 15.7561 16.9852C16.0697 16.8254 16.3253 16.5699 16.4851 16.2563C16.6666 15.9001 16.6666 15.4342 16.6666 14.5026V7.16666M3.33325 7.16666H16.6666M3.33325 7.16666L4.4709 5.17574C4.75009 4.68716 4.88965 4.44292 5.08596 4.26505C5.25979 4.10755 5.46541 3.98837 5.6884 3.91559C5.94043 3.83333 6.22178 3.83333 6.7854 3.83333H13.2142C13.7778 3.83333 14.0602 3.83333 14.3122 3.91559C14.5352 3.98837 14.7398 4.10755 14.9137 4.26505C15.1101 4.44306 15.2501 4.68755 15.5297 5.17692L16.6666 7.16666M9.99992 9.66666V14.6667M9.99992 14.6667L12.4999 13M9.99992 14.6667L7.49992 13" stroke="#4B5675" stroke-width="1.4" stroke-linecap="round" stroke-linejoin="round"/>
</svg>
